<?xml version="1.0" encoding="UTF-8"?>
<svg fill="#338000" version="1.1" viewBox="0 0 512 512" xmlns="http://www.w3.org/2000/svg">
 <path d="m256 20a236 236 0 0 1 0 472 236 236 0 0 1 0-472z"/>
 <path d="m256 44a212 212 0 0 1 0 424 212 212 0 0 1 0-424z" fill="#fff"/>
 <path d="M144 80v176a16 16 0 0 0 23.2 14.3l88.8-44.4 88.8 44.4A16 16 0 0 0 368 256V80h-32v150.1l-72.8-36.4a16 16 0 0 0-14.4 0L176 230.1V80z"/>
 <path d="m391.2 257.7 48 24a16 16 0 0 1-14.4 28.6l-48-24zM192 144v32h48v-32zm-96 0a16 16 0 0 0 0 32h32v-32zm176 0v32h48v-32zm144 0a16 16 0 0 1 0 32h-32v-32zM240 256v32h-96v32h96v112a16 16 0 0 0 32 0V320h96v-32h-96v-32zm102.3 88.8 24 48a16 16 0 0 1-28.6 14.4l-24-48zm-172.6 0-24 48a16 16 0 0 0 28.6 14.4l24-48zm-48.9-87.1-48 24a16 16 0 0 0 14.4 28.6l48-24z" fill="#333"/>
</svg>
